<?xml version="1.0"?>
<svg xmlns="http://www.w3.org/2000/svg" height="512px" viewBox="0 0 511 512" width="512px"><g><path d="m40.488281 314.894531h-39.988281v-39.988281h39.988281zm0-314.894531c-22.085937 0-39.988281 17.902344-39.988281 39.988281v38.984375h39.988281v-38.984375h38.984375v-39.988281zm0 196.933594h-39.988281v39.988281h39.988281zm0-77.972656h-39.988281v39.984374h39.988281zm77.972657-78.972657h39.984374v-39.988281h-39.984374zm0 471.839844h39.984374v-39.988281h-39.984374zm-77.972657-158.949219h-39.988281v39.988282h39.988281zm0 80.972656h-39.988281v37.988282c0 22.085937 17.902344 39.988281 39.988281 39.988281h38.984375v-39.988281h-38.984375zm197.929688-116.957031h39.988281v-39.988281h-39.988281zm0-316.894531h-39.984375v39.988281h39.984375v38.984375h39.988281v-38.984375c0-22.085937-17.902344-39.988281-39.988281-39.988281zm0 238.917969h39.988281v-39.984375h-39.988281zm0-79.972657h39.988281v-39.984374h-39.988281zm0 235.921876h39.988281v-39.988282h-39.988281zm0 76.972656h-39.984375v39.988281h39.984375c22.085937 0 39.988281-17.902344 39.988281-39.988281v-37.988282h-39.988281zm202.832031-36.261719v-358.328125l41.960938 41.867188 28.242187-28.304688-90.183594-89.984375-91.132812 89.902344 28.082031 28.46875 43.042969-42.464844v359.359375l-43.042969-42.464844-28.082031 28.464844 91.132812 89.90625 90.183594-89.984375-28.242187-28.308594zm0 0" data-original="#000000" class="active-path" data-old_color="#000000" fill="#3f51b5"/></g> </svg>
